<?xml version="1.0" encoding="UTF-8" standalone="no"?>
<svg xmlns:xlink="http://www.w3.org/1999/xlink" height="89.95px" width="89.95px" xmlns="http://www.w3.org/2000/svg" viewBox="0 0 89.95 89.95">
  <g transform="matrix(1.0, 0.0, 0.0, 1.0, 44.95, 44.95)">
    <use height="339.0" transform="matrix(0.1413, 0.0, 0.0, 0.1413, -23.65, -23.95)" width="339.0" xlink:href="#shape0"/>
    <use height="89.95" transform="matrix(1.0, 0.0, 0.0, 1.0, -44.95, -44.95)" width="89.95" xlink:href="#shape1"/>
  </g>
  <defs>
    <g id="shape0" transform="matrix(1.0, 0.0, 0.0, 1.0, 0.0, 0.0)">
      <path d="M339.0 169.5 Q339.0 239.65 289.3 289.35 239.7 339.0 169.5 339.0 154.9 339.0 140.2 336.1 131.8 334.35 112.75 329.2 97.4 325.1 82.55 324.9 69.3 324.75 62.3 327.4 49.25 332.3 36.25 332.15 23.1 332.1 14.05 322.95 5.0 314.0 4.85 300.9 4.8 287.95 11.55 274.0 14.7 267.4 14.1 252.45 13.4 238.5 8.8 223.95 4.25 209.55 2.1 197.75 0.0 186.65 0.0 169.5 0.0 99.25 49.65 49.7 99.35 0.0 169.5 0.0 239.65 0.0 289.3 49.7 339.0 99.3 339.0 169.5" fill="url(#gradient0)" fill-rule="evenodd" stroke="none"/>
      <path d="M265.8 128.8 Q278.2 128.6 287.4 140.4 296.0 150.85 295.4 166.2 L295.4 207.25 Q295.4 211.8 292.25 215.0 288.95 218.25 284.4 218.25 279.9 218.25 276.65 215.0 273.4 211.75 273.4 207.25 L273.4 163.2 Q273.2 158.0 270.3 154.15 L270.25 154.15 Q265.75 149.1 259.15 149.25 252.6 149.25 247.8 154.35 243.0 159.35 242.15 167.8 L242.15 207.25 Q242.15 211.8 239.0 215.0 235.7 218.25 231.2 218.25 226.65 218.25 223.45 215.0 220.2 211.85 220.2 207.25 L220.2 132.6 Q220.0 130.25 223.25 130.25 L232.25 130.0 Q238.0 129.7 238.8 132.2 243.85 134.35 248.65 131.75 253.2 129.1 265.8 128.8 M204.4 207.25 Q204.4 211.75 201.2 215.0 197.9 218.25 193.35 218.25 188.85 218.25 185.6 215.0 182.35 211.75 182.35 207.25 L182.35 141.8 Q182.35 137.3 185.6 134.05 188.85 130.8 193.35 130.8 197.9 130.8 201.2 134.05 204.4 137.35 204.4 141.8 L204.4 207.25 M165.55 207.25 Q165.55 211.8 162.4 215.0 159.1 218.25 154.6 218.25 150.05 218.25 146.85 215.0 143.6 211.85 143.6 207.25 L143.6 104.6 Q143.6 100.05 146.85 96.85 150.05 93.6 154.6 93.6 159.1 93.6 162.4 96.85 165.55 100.1 165.55 104.6 L165.55 207.25 M122.45 205.45 Q110.6 219.8 93.8 219.55 81.85 219.7 77.55 217.75 73.05 215.5 72.3 220.45 L72.3 239.25 Q72.3 243.8 69.05 247.1 65.85 250.25 61.3 250.25 56.7 250.25 53.55 247.1 50.3 243.85 50.3 239.25 L50.3 134.5 Q50.15 131.65 52.55 131.1 L56.8 130.55 68.4 130.75 Q69.85 131.2 71.05 132.6 72.25 134.05 74.5 133.75 76.35 133.6 78.8 132.0 83.1 129.25 93.8 128.25 110.6 128.1 122.45 142.5 133.2 155.5 133.2 173.95 133.2 192.35 122.45 205.45 M110.5 174.2 Q110.5 163.35 103.9 155.45 98.4 149.15 90.8 148.9 80.7 150.65 76.25 157.75 73.0 162.95 72.3 170.15 L72.3 178.15 Q73.05 187.2 77.5 193.15 82.45 199.85 90.8 199.4 98.45 199.25 103.9 192.9 110.5 185.0 110.5 174.2" fill="#ffffff" fill-rule="evenodd" stroke="none"/>
      <path d="M202.3 122.8 Q198.9 126.3 193.85 126.3 188.9 126.3 185.35 122.75 181.85 119.35 181.85 114.25 181.85 109.35 185.3 105.8 L185.4 105.7 Q188.9 102.2 193.85 102.2 198.85 102.2 202.4 105.75 205.95 109.4 205.95 114.25 205.95 119.2 202.45 122.75 L202.3 122.8" fill="#fd70c6" fill-rule="evenodd" stroke="none"/>
    </g>
    <linearGradient gradientTransform="matrix(0.1255, -0.0962, 0.1258, 0.1641, 93.25, 227.95)" gradientUnits="userSpaceOnUse" id="gradient0" spreadMethod="pad" x1="-819.2" x2="819.2">
      <stop offset="0.0" stop-color="#2687f5"/>
      <stop offset="1.0" stop-color="#00e3cf"/>
    </linearGradient>
    <g id="shape1" transform="matrix(1.0, 0.0, 0.0, 1.0, 44.95, 44.95)">
      <path d="M45.0 0.05 Q45.0 18.65 31.85 31.85 18.65 45.0 0.0 45.0 -18.55 45.0 -31.75 31.85 -44.95 18.65 -44.95 0.05 -44.95 -18.55 -31.75 -31.75 -18.55 -44.95 0.0 -44.95 18.65 -44.95 31.85 -31.75 45.0 -18.55 45.0 0.05 M40.6 0.05 Q40.6 -16.75 28.7 -28.65 16.8 -40.55 0.0 -40.55 -16.75 -40.55 -28.65 -28.65 -40.55 -16.75 -40.55 0.05 -40.55 16.8 -28.65 28.7 -16.75 40.6 0.0 40.6 16.8 40.6 28.7 28.7 40.6 16.8 40.6 0.05" fill="url(#gradient1)" fill-rule="evenodd" stroke="none"/>
    </g>
    <linearGradient gradientTransform="matrix(0.0393, -0.0393, 0.0393, 0.0393, 0.0, 0.05)" gradientUnits="userSpaceOnUse" id="gradient1" spreadMethod="pad" x1="-819.2" x2="819.2">
      <stop offset="0.0" stop-color="#248bf3"/>
      <stop offset="1.0" stop-color="#00e3cf"/>
    </linearGradient>
  </defs>
</svg>
